<svg width="19" height="21" viewBox="0 0 19 21" fill="none" xmlns="http://www.w3.org/2000/svg">
<path fill-rule="evenodd" clip-rule="evenodd" d="M9.04002 8.84548C11.1447 8.84548 12.8509 7.13931 12.8509 5.03465C12.8509 2.92999 11.1447 1.22382 9.04002 1.22382C6.93536 1.22382 5.22919 2.92999 5.22919 5.03465C5.22919 7.13931 6.93536 8.84548 9.04002 8.84548ZM9.04002 9.93429C11.746 9.93429 13.9397 7.74065 13.9397 5.03465C13.9397 2.32865 11.746 0.13501 9.04002 0.13501C6.33403 0.13501 4.14038 2.32865 4.14038 5.03465C4.14038 7.74065 6.33403 9.93429 9.04002 9.93429Z" fill="#27251F"/>
<path fill-rule="evenodd" clip-rule="evenodd" d="M0 19.0777C0 15.2687 3.08774 12.181 6.89666 12.181H11.1834C14.9924 12.181 18.0801 15.2687 18.0801 19.0777V20.0101H16.9913V19.0777C16.9913 15.8701 14.391 13.2698 11.1834 13.2698H6.89666C3.68907 13.2698 1.08881 15.8701 1.08881 19.0777V20.0101H0V19.0777Z" fill="#27251F"/>
</svg>
