<svg width="19" height="20" viewBox="0 0 19 20" fill="none" xmlns="http://www.w3.org/2000/svg">
<path fill-rule="evenodd" clip-rule="evenodd" d="M12.948 12.7626L18.7383 18.5608C18.9253 18.7481 18.9251 19.0514 18.7378 19.2384C18.5506 19.4254 18.2472 19.4252 18.0602 19.238L12.2699 13.4398L12.948 12.7626Z" fill="#27251F"/>
<path fill-rule="evenodd" clip-rule="evenodd" d="M7.80639 14.5347C11.3838 14.5347 14.2839 11.6347 14.2839 8.05724C14.2839 4.47983 11.3838 1.57976 7.80639 1.57976C4.22897 1.57976 1.3289 4.47983 1.3289 8.05724C1.3289 11.6347 4.22897 14.5347 7.80639 14.5347ZM7.80639 15.493C11.9131 15.493 15.2422 12.1639 15.2422 8.05724C15.2422 3.95057 11.9131 0.62146 7.80639 0.62146C3.69972 0.62146 0.370605 3.95057 0.370605 8.05724C0.370605 12.1639 3.69972 15.493 7.80639 15.493Z" fill="#27251F"/>
</svg>
