<svg width="16" height="23" viewBox="0 0 16 23" fill="none" xmlns="http://www.w3.org/2000/svg">
<path fill-rule="evenodd" clip-rule="evenodd" d="M8 11C9.65685 11 11 9.65685 11 8C11 6.34315 9.65685 5 8 5C6.34315 5 5 6.34315 5 8C5 9.65685 6.34315 11 8 11ZM8 12C10.2091 12 12 10.2091 12 8C12 5.79086 10.2091 4 8 4C5.79086 4 4 5.79086 4 8C4 10.2091 5.79086 12 8 12Z" fill="#27251F"/>
<path fill-rule="evenodd" clip-rule="evenodd" d="M13.8432 11.7862C14.5865 10.1873 15 8.8692 15 8C15 4.13401 11.866 1 8 1C4.13401 1 1 4.13401 1 8C1 8.8692 1.41353 10.1873 2.15681 11.7862C2.88237 13.3469 3.85858 15.0449 4.84783 16.6266C5.83494 18.2048 6.82372 19.6494 7.5666 20.7004C7.72286 20.9214 7.8681 21.1249 8 21.3083C8.1319 21.1249 8.27714 20.9214 8.4334 20.7004C9.17628 19.6494 10.1651 18.2048 11.1522 16.6266C12.1414 15.0449 13.1176 13.3469 13.8432 11.7862ZM8.6197 22.1583C10.498 19.5671 16 11.6641 16 8C16 3.58172 12.4183 0 8 0C3.58172 0 0 3.58172 0 8C0 11.6641 5.50198 19.5671 7.3803 22.1583C7.76691 22.6917 8 23 8 23C8 23 8.23309 22.6917 8.6197 22.1583Z" fill="#27251F"/>
</svg>
