<svg width="123" height="26" viewBox="0 0 123 26" fill="none" xmlns="http://www.w3.org/2000/svg">
<g clip-path="url(#clip0_1_100)">
<path d="M77.1085 4.39643H77.6257L77.1947 0.0431023L77.1516 0H77.0223V0.0431023L76.5482 4.39643H76.5913H77.1085ZM79.5653 4.69815V4.65505L80.2981 0.775841V0.732739L80.1688 0.689636L80.1257 0.732739L78.5309 4.43953L79.5653 4.69815ZM78.7895 6.37914C79.0912 6.37914 79.3929 6.12052 79.3929 5.7757C79.3929 5.43089 79.1343 5.17227 78.7895 5.17227C78.4447 5.17227 78.1861 5.43089 78.1861 5.7757C78.1861 6.12052 78.4447 6.37914 78.7895 6.37914ZM77.1085 6.16362C77.4102 6.16362 77.7119 5.90501 77.7119 5.56019C77.7119 5.21537 77.4533 4.95676 77.1085 4.95676C76.7637 4.95676 76.5051 5.21537 76.5051 5.56019C76.462 5.94811 76.7637 6.16362 77.1085 6.16362ZM74.6517 4.69815L75.643 4.43953H75.6861L74.0482 0.732739L74.0051 0.689636L73.9189 0.732739L73.8758 0.775841L74.6086 4.65505L74.6517 4.69815ZM74.781 5.7326C74.781 6.07742 75.0396 6.33603 75.3844 6.33603C75.6861 6.33603 75.9879 6.07742 75.9879 5.7326C75.9879 5.38778 75.7292 5.12917 75.3844 5.12917C75.0827 5.17227 74.781 5.43089 74.781 5.7326ZM5.64494 7.45669H0.429565C0.429565 7.45669 0.558872 8.70666 0.558872 10.8618V21.7666C0.558872 23.9218 0.429565 25.1717 0.429565 25.1717L0.472668 25.2148H3.87775V25.1717C3.87775 25.1717 3.74844 23.9218 3.74844 21.7666V18.5771L3.79154 18.534C4.26567 18.5771 5.30012 18.6202 5.64494 18.6202C9.13622 18.6202 12.1534 16.5082 12.1534 12.8876C12.1103 9.4394 9.09312 7.45669 5.64494 7.45669ZM5.47253 15.7323C5.08461 15.7323 4.13636 15.6892 3.74844 15.603V10.3445H5.73114C7.49834 10.3445 8.87761 11.0342 8.87761 12.8876C8.87761 14.741 7.67075 15.7323 5.47253 15.7323ZM21.8083 8.87907C21.4204 7.97392 21.2911 7.45669 21.2911 7.45669L21.248 7.41359H18.5325L18.4894 7.45669C18.4894 7.45669 18.4032 7.97392 18.0153 8.87907L12.0241 23.2752C11.5068 24.4821 10.9896 25.1717 10.9896 25.1717V25.2148H14.4809L14.524 25.1717C14.524 25.0855 14.6102 24.6545 15.0412 23.5769L16.1188 20.8615H23.8341L24.9979 23.5769C25.3858 24.6114 25.6013 25.1717 25.6013 25.1717L25.6444 25.2148H29.1357V25.1717C29.1357 25.1717 28.6616 24.5252 28.1012 23.2752L21.8083 8.87907ZM17.3257 17.9305L19.8256 11.6807H19.8687L22.5841 17.9305H17.3257ZM46.6352 7.45669L43.5318 7.41359L43.4887 7.45669C43.4887 7.45669 43.618 8.70666 43.618 10.8618V19.7839H43.5749L34.0062 7.45669H30.6012C30.9891 8.27564 31.2046 8.83597 31.2046 9.22389V21.7666C31.2046 23.9218 31.0753 25.1717 31.0753 25.1717L31.1184 25.2148H34.2217L34.2649 25.1717C34.2649 25.1717 34.1355 23.9218 34.1355 21.7666V12.6721H34.1786L43.7905 25.1717H46.6783L46.7214 25.1286C46.7214 25.1286 46.5921 23.8787 46.5921 21.7235V10.8618C46.5059 8.70666 46.6352 7.45669 46.6352 7.45669ZM56.2901 7.45669H50.342L50.2989 7.4998C50.2989 7.4998 50.4282 8.74976 50.4282 10.9049V21.8097C50.4282 23.9649 50.2989 25.2148 50.2989 25.2148L50.342 25.2579H52.1523C53.3592 25.2579 54.6953 25.4303 56.2039 25.4303C61.6348 25.4303 65.514 21.5942 65.514 16.422C65.514 11.1635 61.7641 7.45669 56.2901 7.45669ZM56.0746 22.4132C55.2126 22.4132 54.4367 22.3701 53.9626 22.2408C53.704 22.1546 53.6178 22.0684 53.6178 21.5942V10.3445H55.9884C59.8245 10.3445 62.2813 12.9307 62.2813 16.3789C62.2813 19.7839 59.8245 22.4132 56.0746 22.4132ZM77.1085 7.19808C71.9793 7.19808 68.0139 11.1635 68.0139 16.2927C68.0139 21.4649 71.9793 25.3872 77.1085 25.3872C82.2808 25.3872 86.2031 21.4649 86.2031 16.2927C86.2031 11.1635 82.2808 7.19808 77.1085 7.19808ZM77.1085 22.4994C73.8327 22.4994 71.2466 19.827 71.2466 16.3358C71.2466 12.8445 73.7896 10.1721 77.1085 10.1721C80.4274 10.1721 82.9704 12.8445 82.9704 16.3358C82.9704 19.7839 80.4274 22.4994 77.1085 22.4994ZM98.8321 19.1805C98.401 18.4909 97.7545 17.9305 97.0649 17.715V17.6719C98.9183 17.284 100.642 15.1289 100.642 12.9738C100.642 10.0428 98.401 7.45669 94.9097 7.45669H89.2203L89.1771 7.4998C89.1771 7.4998 89.3065 8.74976 89.3065 10.9049V21.8097C89.3065 23.9649 89.1771 25.2148 89.1771 25.2148L89.2203 25.2579H92.6253L92.6684 25.2148C92.6684 25.2148 92.5391 23.9649 92.5391 21.8097V18.4047C94.2201 18.4047 94.9097 18.7495 95.5132 19.6977L96.9787 21.9822C98.1855 23.9218 98.6596 25.1286 98.6596 25.1286L98.7027 25.1717H102.754V25.1286C102.754 25.1286 101.72 23.8787 100.556 21.9822L98.8321 19.1805ZM94.1339 15.5599C93.746 15.5599 93.0133 15.5599 92.5391 15.4737V10.3445H94.4787C96.3752 10.3445 97.4097 11.5945 97.4097 13.0169C97.4097 14.3531 96.3752 15.5599 94.1339 15.5599ZM121.59 23.2752L115.297 8.87907C114.909 7.97392 114.78 7.45669 114.78 7.45669L114.737 7.41359H111.978L111.935 7.45669C111.935 7.45669 111.849 7.97392 111.461 8.87907L105.513 23.2752C104.996 24.4821 104.478 25.1717 104.478 25.1717V25.2148H107.97L108.013 25.1717C108.013 25.0855 108.099 24.6545 108.53 23.5769L109.608 20.8615H117.323L118.487 23.5769C118.875 24.6114 119.09 25.1717 119.09 25.1717L119.133 25.2148H122.625V25.1717C122.625 25.1717 122.15 24.5252 121.59 23.2752ZM110.814 17.9305L113.314 11.6807H113.358L116.073 17.9305H110.814Z" fill="#27251F"/>
</g>
<defs>
<clipPath id="clip0_1_100">
<rect width="122.195" height="25.4303" fill="white" transform="translate(0.429565)"/>
</clipPath>
</defs>
</svg>
